# xmcd
#
# Track frame offsets:
#	150
#	17562
#	34282
#	48022
#	63412
#	76615
#	93952
#	110717
#	125632
#	138337
#	154375
#	168885
#	180972
#	196042
#	211885
#	226145
#	241667
#	256160
#	269015
#	286657
#	307135
#	312015
#
# Disc length: 4190
#
# Revision: 1
# Processed by: cddbd v1.5.1PL0 Copyright (c) Steve Scherf et al.
# Submitted via: VisiTrax 2.9.5.180 - For more info visit www.synapsa.com
# Normalized: r0:DSETVAR1
#
DISCID=1b105c16
DTITLE=Various Artist - CDX 83 May 1994
DYEAR=1994
DGENRE=
TTITLE0=Faith Hill - But I will
TTITLE1=Billy Dean - Cowboy band
TTITLE2=Marty Brown - Cryin' lovin' leavin
TTITLE3=Ricky Lynn Gregg - Get a little closer
TTITLE4=Chely Wright - He's a good ole boy
TTITLE5=Trisha Yearwood - Aaron Neville - I fall to pieces
TTITLE6=Lorrie Morgan - If you came back from heaven
TTITLE7=Kimber Clayton - I know that car
TTITLE8=Linda Davis - Love didn't do it
TTITLE9=Gibson/Miller Band - Mamas don't let your babies grow up to be cowboys
TTITLE10=Samm Kershaw - National working woman's holiday
TTITLE11=Tracy Lawrence - Renegades, rebels and rogues
TTITLE12=Rick Trevino - She can't say I didn't cry
TTITLE13=Billy Ray Cyrus - Talk some
TTITLE14=Mike Henderson - The want to
TTITLE15=Johm Berry - What's in it for me
TTITLE16=Holly Stannardyoung/Young and blond - You the man
TTITLE17=Eric Norfsinger - I. O. Blues
TTITLE18=Marty Stuart - Love and luck
TTITLE19=Gibson/Miller Band - Mamas don't let your babies grow up to be cowboys
TTITLE20=Collin raye - ?
TTITLE21=Collin Raye - ?
EXTD=
EXTT0=
EXTT1=
EXTT2=
EXTT3=
EXTT4=
EXTT5=
EXTT6=
EXTT7=
EXTT8=
EXTT9=
EXTT10=
EXTT11=
EXTT12=
EXTT13=
EXTT14=
EXTT15=
EXTT16=
EXTT17=
EXTT18=
EXTT19=
EXTT20=
EXTT21=
PLAYORDER=
